<mxfile host="app.diagrams.net" agent="Mozilla/5.0 (Windows NT 10.0; Win64; x64) AppleWebKit/537.36 (KHTML, like Gecko) Chrome/135.0.0.0 Safari/537.36" version="26.2.14">
  <diagram id="C5RBs43oDa-KdzZeNtuy" name="Page-1">
    <mxGraphModel dx="2253" dy="789" grid="1" gridSize="10" guides="1" tooltips="1" connect="1" arrows="1" fold="1" page="1" pageScale="1" pageWidth="827" pageHeight="1169" math="0" shadow="0">
      <root>
        <mxCell id="WIyWlLk6GJQsqaUBKTNV-0" />
        <mxCell id="WIyWlLk6GJQsqaUBKTNV-1" parent="WIyWlLk6GJQsqaUBKTNV-0" />
        <mxCell id="qxKwSoq66kNRniXn7sG5-3" value="Empresa" style="swimlane;fontStyle=1;align=center;verticalAlign=top;childLayout=stackLayout;horizontal=1;startSize=26;horizontalStack=0;resizeParent=1;resizeParentMax=0;resizeLast=0;collapsible=1;marginBottom=0;whiteSpace=wrap;html=1;" parent="WIyWlLk6GJQsqaUBKTNV-1" vertex="1">
          <mxGeometry x="40" y="528" width="230" height="176" as="geometry">
            <mxRectangle x="260" y="450" width="100" height="30" as="alternateBounds" />
          </mxGeometry>
        </mxCell>
        <mxCell id="qxKwSoq66kNRniXn7sG5-4" value="- nombreDeEmpresa: String&lt;div&gt;- cuit: String&lt;/div&gt;&lt;div&gt;-&amp;nbsp;&lt;/div&gt;" style="text;strokeColor=none;fillColor=none;align=left;verticalAlign=top;spacingLeft=4;spacingRight=4;overflow=hidden;rotatable=0;points=[[0,0.5],[1,0.5]];portConstraint=eastwest;whiteSpace=wrap;html=1;" parent="qxKwSoq66kNRniXn7sG5-3" vertex="1">
          <mxGeometry y="26" width="230" height="50" as="geometry" />
        </mxCell>
        <mxCell id="qxKwSoq66kNRniXn7sG5-5" value="" style="line;strokeWidth=1;fillColor=none;align=left;verticalAlign=middle;spacingTop=-1;spacingLeft=3;spacingRight=3;rotatable=0;labelPosition=right;points=[];portConstraint=eastwest;strokeColor=inherit;" parent="qxKwSoq66kNRniXn7sG5-3" vertex="1">
          <mxGeometry y="76" width="230" height="8" as="geometry" />
        </mxCell>
        <mxCell id="qxKwSoq66kNRniXn7sG5-6" value="+ newEmpleado(Empleado e): void&amp;nbsp;&lt;div&gt;&lt;div&gt;+ calcularTotalSueldosNetos(): double&lt;/div&gt;&lt;div&gt;&lt;span style=&quot;background-color: transparent; color: light-dark(rgb(0, 0, 0), rgb(255, 255, 255));&quot;&gt;+ calcularTotalSueldosBrutos(): double&lt;/span&gt;&lt;/div&gt;&lt;div&gt;+ calcularTotalRetenciones(): double&lt;/div&gt;&lt;div&gt;+ liquidarSueldos(): void&lt;/div&gt;&lt;/div&gt;" style="text;strokeColor=none;fillColor=none;align=left;verticalAlign=top;spacingLeft=4;spacingRight=4;overflow=hidden;rotatable=0;points=[[0,0.5],[1,0.5]];portConstraint=eastwest;whiteSpace=wrap;html=1;" parent="qxKwSoq66kNRniXn7sG5-3" vertex="1">
          <mxGeometry y="84" width="230" height="92" as="geometry" />
        </mxCell>
        <mxCell id="qxKwSoq66kNRniXn7sG5-7" value="&lt;i&gt;Empleado&lt;/i&gt;" style="swimlane;fontStyle=1;align=center;verticalAlign=top;childLayout=stackLayout;horizontal=1;startSize=26;horizontalStack=0;resizeParent=1;resizeParentMax=0;resizeLast=0;collapsible=1;marginBottom=0;whiteSpace=wrap;html=1;" parent="WIyWlLk6GJQsqaUBKTNV-1" vertex="1">
          <mxGeometry x="500" y="376" width="340" height="460" as="geometry" />
        </mxCell>
        <mxCell id="qxKwSoq66kNRniXn7sG5-8" value="-nombre:String&lt;div&gt;-direccion: String&lt;/div&gt;&lt;div&gt;-estadoCivil: String&lt;/div&gt;&lt;div&gt;-fechaDeNacimiento: date&lt;/div&gt;&lt;div&gt;- sueldoBasico: double&lt;/div&gt;&lt;div&gt;&lt;br&gt;&lt;/div&gt;&lt;div&gt;&lt;i&gt;- cantidadDeHijos: int&lt;/i&gt;&lt;/div&gt;&lt;div&gt;&lt;i&gt;- antig端edad: int&lt;/i&gt;&lt;/div&gt;&lt;div&gt;&lt;i&gt;- fechaDeDesignacionAPlantaTemporaria : date&lt;/i&gt;&lt;/div&gt;&lt;div&gt;&lt;i&gt;- cantidadDeHorasExtras: int&lt;/i&gt;&lt;/div&gt;" style="text;strokeColor=none;fillColor=none;align=left;verticalAlign=top;spacingLeft=4;spacingRight=4;overflow=hidden;rotatable=0;points=[[0,0.5],[1,0.5]];portConstraint=eastwest;whiteSpace=wrap;html=1;" parent="qxKwSoq66kNRniXn7sG5-7" vertex="1">
          <mxGeometry y="26" width="340" height="174" as="geometry" />
        </mxCell>
        <mxCell id="qxKwSoq66kNRniXn7sG5-9" value="" style="line;strokeWidth=1;fillColor=none;align=left;verticalAlign=middle;spacingTop=-1;spacingLeft=3;spacingRight=3;rotatable=0;labelPosition=right;points=[];portConstraint=eastwest;strokeColor=inherit;" parent="qxKwSoq66kNRniXn7sG5-7" vertex="1">
          <mxGeometry y="200" width="340" height="8" as="geometry" />
        </mxCell>
        <mxCell id="qxKwSoq66kNRniXn7sG5-10" value="&lt;div&gt;+getSueldoBasico(): double&lt;/div&gt;&lt;div&gt;+setSueldoBasico(double): void&lt;/div&gt;&lt;div&gt;+getNombre():String&lt;/div&gt;&lt;div&gt;+setNombre(String): void&amp;nbsp;&lt;/div&gt;&lt;div&gt;&lt;div&gt;+getEstadoCivil():String&lt;/div&gt;&lt;div&gt;+setEstadoCivil(String): void&lt;/div&gt;&lt;div&gt;+getFechaDeNacimiento():date&lt;/div&gt;&lt;div&gt;&lt;span style=&quot;background-color: transparent; color: light-dark(rgb(0, 0, 0), rgb(255, 255, 255));&quot;&gt;+setFechaDeNacimiento(date): void&lt;/span&gt;&lt;/div&gt;&lt;div&gt;+getDireccion():String&lt;/div&gt;&lt;div&gt;&lt;span style=&quot;background-color: transparent; color: light-dark(rgb(0, 0, 0), rgb(255, 255, 255));&quot;&gt;+setDireccion(String): void&lt;/span&gt;&lt;/div&gt;&lt;div&gt;&lt;span style=&quot;background-color: transparent; color: light-dark(rgb(0, 0, 0), rgb(255, 255, 255));&quot;&gt;&lt;br&gt;&lt;/span&gt;&lt;/div&gt;+edad(): int&lt;span style=&quot;background-color: transparent; color: light-dark(rgb(0, 0, 0), rgb(255, 255, 255));&quot;&gt;&amp;nbsp;&lt;/span&gt;&lt;span style=&quot;background-color: transparent; color: light-dark(rgb(0, 0, 0), rgb(255, 255, 255));&quot;&gt;&amp;nbsp;&lt;/span&gt;&lt;span style=&quot;background-color: transparent; color: light-dark(rgb(0, 0, 0), rgb(255, 255, 255));&quot;&gt;&amp;nbsp;&lt;/span&gt;&lt;/div&gt;&lt;div&gt;&lt;span style=&quot;background-color: transparent; color: light-dark(rgb(0, 0, 0), rgb(255, 255, 255));&quot;&gt;+sueldoNeto(): double&lt;/span&gt;&lt;/div&gt;&lt;div&gt;&lt;div&gt;&lt;div&gt;&lt;i&gt;+&lt;/i&gt;getReciboDeHaberes(): ReciboDeHaberes&lt;/div&gt;&lt;div&gt;&lt;i&gt;&lt;br&gt;&lt;/i&gt;&lt;/div&gt;&lt;div&gt;&lt;i&gt;+sueldoBruto(): double&lt;/i&gt;&lt;/div&gt;&lt;div&gt;&lt;i&gt;+retenciones(): double&lt;/i&gt;&lt;/div&gt;&lt;/div&gt;&lt;/div&gt;&lt;div&gt;&lt;br&gt;&lt;/div&gt;" style="text;strokeColor=none;fillColor=none;align=left;verticalAlign=top;spacingLeft=4;spacingRight=4;overflow=hidden;rotatable=0;points=[[0,0.5],[1,0.5]];portConstraint=eastwest;whiteSpace=wrap;html=1;" parent="qxKwSoq66kNRniXn7sG5-7" vertex="1">
          <mxGeometry y="208" width="340" height="252" as="geometry" />
        </mxCell>
        <mxCell id="qxKwSoq66kNRniXn7sG5-13" style="edgeStyle=orthogonalEdgeStyle;rounded=0;orthogonalLoop=1;jettySize=auto;html=1;exitX=1;exitY=0.5;exitDx=0;exitDy=0;" parent="WIyWlLk6GJQsqaUBKTNV-1" edge="1">
          <mxGeometry relative="1" as="geometry">
            <mxPoint x="270" y="599.98" as="sourcePoint" />
            <mxPoint x="500" y="580" as="targetPoint" />
            <Array as="points">
              <mxPoint x="270" y="576" />
              <mxPoint x="340" y="576" />
              <mxPoint x="340" y="557" />
              <mxPoint x="430" y="557" />
              <mxPoint x="430" y="580" />
              <mxPoint x="500" y="580" />
            </Array>
          </mxGeometry>
        </mxCell>
        <mxCell id="qxKwSoq66kNRniXn7sG5-20" value="1" style="text;html=1;align=center;verticalAlign=middle;resizable=0;points=[];autosize=1;strokeColor=none;fillColor=none;" parent="WIyWlLk6GJQsqaUBKTNV-1" vertex="1">
          <mxGeometry x="280" y="540" width="30" height="30" as="geometry" />
        </mxCell>
        <mxCell id="qxKwSoq66kNRniXn7sG5-21" value="empleado" style="text;html=1;align=center;verticalAlign=middle;resizable=0;points=[];autosize=1;strokeColor=none;fillColor=none;" parent="WIyWlLk6GJQsqaUBKTNV-1" vertex="1">
          <mxGeometry x="334" y="528" width="80" height="30" as="geometry" />
        </mxCell>
        <mxCell id="qxKwSoq66kNRniXn7sG5-22" value="*" style="text;html=1;align=center;verticalAlign=middle;resizable=0;points=[];autosize=1;strokeColor=none;fillColor=none;" parent="WIyWlLk6GJQsqaUBKTNV-1" vertex="1">
          <mxGeometry x="445" y="558" width="30" height="30" as="geometry" />
        </mxCell>
        <mxCell id="qxKwSoq66kNRniXn7sG5-23" value="EmpleadoPermanente" style="swimlane;fontStyle=1;align=center;verticalAlign=top;childLayout=stackLayout;horizontal=1;startSize=26;horizontalStack=0;resizeParent=1;resizeParentMax=0;resizeLast=0;collapsible=1;marginBottom=0;whiteSpace=wrap;html=1;" parent="WIyWlLk6GJQsqaUBKTNV-1" vertex="1">
          <mxGeometry x="560" y="975" width="240" height="190" as="geometry" />
        </mxCell>
        <mxCell id="qxKwSoq66kNRniXn7sG5-24" value="- cantidadDeHijos: int&lt;div&gt;- antig端edad: int&lt;/div&gt;" style="text;strokeColor=none;fillColor=none;align=left;verticalAlign=top;spacingLeft=4;spacingRight=4;overflow=hidden;rotatable=0;points=[[0,0.5],[1,0.5]];portConstraint=eastwest;whiteSpace=wrap;html=1;" parent="qxKwSoq66kNRniXn7sG5-23" vertex="1">
          <mxGeometry y="26" width="240" height="54" as="geometry" />
        </mxCell>
        <mxCell id="qxKwSoq66kNRniXn7sG5-25" value="" style="line;strokeWidth=1;fillColor=none;align=left;verticalAlign=middle;spacingTop=-1;spacingLeft=3;spacingRight=3;rotatable=0;labelPosition=right;points=[];portConstraint=eastwest;strokeColor=inherit;" parent="qxKwSoq66kNRniXn7sG5-23" vertex="1">
          <mxGeometry y="80" width="240" height="8" as="geometry" />
        </mxCell>
        <mxCell id="qxKwSoq66kNRniXn7sG5-26" value="&lt;div&gt;+getCantidadDeHijos(): int&lt;/div&gt;&lt;div&gt;+setCantidadDeHijos(int): void&lt;/div&gt;&lt;div&gt;&lt;div&gt;+getAntig端edad(): int&lt;/div&gt;&lt;div&gt;+setAntig端edad(int): void&lt;/div&gt;&lt;/div&gt;+sueldoBruto():double&lt;div&gt;&lt;span style=&quot;background-color: transparent; color: light-dark(rgb(0, 0, 0), rgb(255, 255, 255));&quot;&gt;+retenciones(): double&lt;/span&gt;&lt;/div&gt;&lt;div&gt;&lt;br&gt;&lt;/div&gt;" style="text;strokeColor=none;fillColor=none;align=left;verticalAlign=top;spacingLeft=4;spacingRight=4;overflow=hidden;rotatable=0;points=[[0,0.5],[1,0.5]];portConstraint=eastwest;whiteSpace=wrap;html=1;" parent="qxKwSoq66kNRniXn7sG5-23" vertex="1">
          <mxGeometry y="88" width="240" height="102" as="geometry" />
        </mxCell>
        <mxCell id="qxKwSoq66kNRniXn7sG5-32" value="EmpleadoTemporario" style="swimlane;fontStyle=1;align=center;verticalAlign=top;childLayout=stackLayout;horizontal=1;startSize=26;horizontalStack=0;resizeParent=1;resizeParentMax=0;resizeLast=0;collapsible=1;marginBottom=0;whiteSpace=wrap;html=1;" parent="WIyWlLk6GJQsqaUBKTNV-1" vertex="1">
          <mxGeometry x="104" y="980" width="350" height="190" as="geometry" />
        </mxCell>
        <mxCell id="qxKwSoq66kNRniXn7sG5-33" value="- fechaDeDesignacionAPlantaTemporaria: date&lt;div&gt;- cantidadDeHorasExtras: int&amp;nbsp;&lt;/div&gt;" style="text;strokeColor=none;fillColor=none;align=left;verticalAlign=top;spacingLeft=4;spacingRight=4;overflow=hidden;rotatable=0;points=[[0,0.5],[1,0.5]];portConstraint=eastwest;whiteSpace=wrap;html=1;" parent="qxKwSoq66kNRniXn7sG5-32" vertex="1">
          <mxGeometry y="26" width="350" height="54" as="geometry" />
        </mxCell>
        <mxCell id="qxKwSoq66kNRniXn7sG5-34" value="" style="line;strokeWidth=1;fillColor=none;align=left;verticalAlign=middle;spacingTop=-1;spacingLeft=3;spacingRight=3;rotatable=0;labelPosition=right;points=[];portConstraint=eastwest;strokeColor=inherit;" parent="qxKwSoq66kNRniXn7sG5-32" vertex="1">
          <mxGeometry y="80" width="350" height="8" as="geometry" />
        </mxCell>
        <mxCell id="qxKwSoq66kNRniXn7sG5-35" value="&lt;div&gt;&lt;div&gt;+getCantidadDeHorasExtras(): int&lt;/div&gt;&lt;div&gt;+setCantidadDeHorasExtras(int): void&lt;/div&gt;&lt;/div&gt;&lt;div&gt;&lt;div&gt;+getF&lt;span style=&quot;background-color: transparent; color: light-dark(rgb(0, 0, 0), rgb(255, 255, 255));&quot;&gt;echaDeDesignacionAPlantaTemporaria&lt;/span&gt;&lt;span style=&quot;background-color: transparent; color: light-dark(rgb(0, 0, 0), rgb(255, 255, 255));&quot;&gt;(): date&lt;/span&gt;&lt;/div&gt;&lt;div&gt;+setF&lt;span style=&quot;color: light-dark(rgb(0, 0, 0), rgb(255, 255, 255)); background-color: transparent;&quot;&gt;echaDeDesignacionAPlantaTemporaria&lt;/span&gt;&lt;span style=&quot;color: light-dark(rgb(0, 0, 0), rgb(255, 255, 255)); background-color: transparent;&quot;&gt;(date): void&lt;/span&gt;&lt;/div&gt;&lt;/div&gt;+sueldoBruto():double&lt;div&gt;+retenciones(): double&lt;br&gt;&lt;div&gt;&lt;br&gt;&lt;/div&gt;&lt;/div&gt;" style="text;strokeColor=none;fillColor=none;align=left;verticalAlign=top;spacingLeft=4;spacingRight=4;overflow=hidden;rotatable=0;points=[[0,0.5],[1,0.5]];portConstraint=eastwest;whiteSpace=wrap;html=1;" parent="qxKwSoq66kNRniXn7sG5-32" vertex="1">
          <mxGeometry y="88" width="350" height="102" as="geometry" />
        </mxCell>
        <mxCell id="qxKwSoq66kNRniXn7sG5-37" value="Extends" style="endArrow=block;endSize=16;endFill=0;html=1;rounded=0;exitX=0.433;exitY=-0.025;exitDx=0;exitDy=0;exitPerimeter=0;" parent="WIyWlLk6GJQsqaUBKTNV-1" source="qxKwSoq66kNRniXn7sG5-32" edge="1">
          <mxGeometry width="160" relative="1" as="geometry">
            <mxPoint x="360" y="740" as="sourcePoint" />
            <mxPoint x="520" y="840" as="targetPoint" />
            <Array as="points">
              <mxPoint x="480" y="860" />
            </Array>
          </mxGeometry>
        </mxCell>
        <mxCell id="qxKwSoq66kNRniXn7sG5-38" value="Extends" style="endArrow=block;endSize=16;endFill=0;html=1;rounded=0;exitX=0.542;exitY=0;exitDx=0;exitDy=0;exitPerimeter=0;" parent="WIyWlLk6GJQsqaUBKTNV-1" source="qxKwSoq66kNRniXn7sG5-23" edge="1">
          <mxGeometry width="160" relative="1" as="geometry">
            <mxPoint x="720.6399999999999" y="864" as="sourcePoint" />
            <mxPoint x="670" y="840" as="targetPoint" />
            <Array as="points" />
          </mxGeometry>
        </mxCell>
        <mxCell id="qxKwSoq66kNRniXn7sG5-39" value="EmpleadoContratado" style="swimlane;fontStyle=1;align=center;verticalAlign=top;childLayout=stackLayout;horizontal=1;startSize=26;horizontalStack=0;resizeParent=1;resizeParentMax=0;resizeLast=0;collapsible=1;marginBottom=0;whiteSpace=wrap;html=1;" parent="WIyWlLk6GJQsqaUBKTNV-1" vertex="1">
          <mxGeometry x="890" y="980" width="270" height="230" as="geometry" />
        </mxCell>
        <mxCell id="qxKwSoq66kNRniXn7sG5-40" value="- numeroDeContrato: int&amp;nbsp;&lt;div&gt;- medioDePago: String&lt;/div&gt;" style="text;strokeColor=none;fillColor=none;align=left;verticalAlign=top;spacingLeft=4;spacingRight=4;overflow=hidden;rotatable=0;points=[[0,0.5],[1,0.5]];portConstraint=eastwest;whiteSpace=wrap;html=1;" parent="qxKwSoq66kNRniXn7sG5-39" vertex="1">
          <mxGeometry y="26" width="270" height="64" as="geometry" />
        </mxCell>
        <mxCell id="qxKwSoq66kNRniXn7sG5-41" value="" style="line;strokeWidth=1;fillColor=none;align=left;verticalAlign=middle;spacingTop=-1;spacingLeft=3;spacingRight=3;rotatable=0;labelPosition=right;points=[];portConstraint=eastwest;strokeColor=inherit;" parent="qxKwSoq66kNRniXn7sG5-39" vertex="1">
          <mxGeometry y="90" width="270" height="8" as="geometry" />
        </mxCell>
        <mxCell id="qxKwSoq66kNRniXn7sG5-42" value="&lt;div&gt;&lt;div&gt;+getNumeroDeContrato(): int&lt;/div&gt;&lt;div&gt;+setNumeroDeContrato(int): void&lt;/div&gt;&lt;/div&gt;&lt;div&gt;&lt;div&gt;+getMedioDePago(): String&lt;/div&gt;&lt;div&gt;+setMedioDePago(String): void&lt;/div&gt;&lt;/div&gt;+sueldoBruto(): double&lt;div&gt;+retenciones(): double&lt;/div&gt;" style="text;strokeColor=none;fillColor=none;align=left;verticalAlign=top;spacingLeft=4;spacingRight=4;overflow=hidden;rotatable=0;points=[[0,0.5],[1,0.5]];portConstraint=eastwest;whiteSpace=wrap;html=1;" parent="qxKwSoq66kNRniXn7sG5-39" vertex="1">
          <mxGeometry y="98" width="270" height="132" as="geometry" />
        </mxCell>
        <mxCell id="qxKwSoq66kNRniXn7sG5-43" value="Extends" style="endArrow=block;endSize=16;endFill=0;html=1;rounded=0;exitX=0.852;exitY=0;exitDx=0;exitDy=0;exitPerimeter=0;entryX=0.762;entryY=1;entryDx=0;entryDy=0;entryPerimeter=0;" parent="WIyWlLk6GJQsqaUBKTNV-1" target="qxKwSoq66kNRniXn7sG5-10" edge="1">
          <mxGeometry width="160" relative="1" as="geometry">
            <mxPoint x="1052.44" y="980" as="sourcePoint" />
            <mxPoint x="434.9999999999999" y="670.0039999999999" as="targetPoint" />
          </mxGeometry>
        </mxCell>
        <mxCell id="bfvoDhP0c3YyulJmOozQ-12" style="edgeStyle=orthogonalEdgeStyle;rounded=0;orthogonalLoop=1;jettySize=auto;html=1;exitX=0.013;exitY=0.363;exitDx=0;exitDy=0;entryX=1;entryY=0.5;entryDx=0;entryDy=0;exitPerimeter=0;" parent="WIyWlLk6GJQsqaUBKTNV-1" source="qxKwSoq66kNRniXn7sG5-8" edge="1">
          <mxGeometry relative="1" as="geometry">
            <mxPoint x="538.9999999999998" y="470.034" as="sourcePoint" />
            <mxPoint x="250" y="343" as="targetPoint" />
            <Array as="points">
              <mxPoint x="500" y="465" />
              <mxPoint x="500" y="470" />
              <mxPoint x="440" y="470" />
              <mxPoint x="440" y="420" />
              <mxPoint x="310" y="420" />
              <mxPoint x="310" y="343" />
            </Array>
          </mxGeometry>
        </mxCell>
        <mxCell id="bfvoDhP0c3YyulJmOozQ-13" value="reciboDeHaberes" style="text;html=1;align=center;verticalAlign=middle;resizable=0;points=[];autosize=1;strokeColor=none;fillColor=none;" parent="WIyWlLk6GJQsqaUBKTNV-1" vertex="1">
          <mxGeometry x="325" y="388" width="120" height="30" as="geometry" />
        </mxCell>
        <mxCell id="bfvoDhP0c3YyulJmOozQ-14" value="1" style="text;html=1;align=center;verticalAlign=middle;resizable=0;points=[];autosize=1;strokeColor=none;fillColor=none;" parent="WIyWlLk6GJQsqaUBKTNV-1" vertex="1">
          <mxGeometry x="305" y="338" width="30" height="30" as="geometry" />
        </mxCell>
        <mxCell id="bfvoDhP0c3YyulJmOozQ-15" value="1" style="text;html=1;align=center;verticalAlign=middle;resizable=0;points=[];autosize=1;strokeColor=none;fillColor=none;" parent="WIyWlLk6GJQsqaUBKTNV-1" vertex="1">
          <mxGeometry x="455" y="438" width="30" height="30" as="geometry" />
        </mxCell>
        <mxCell id="bfvoDhP0c3YyulJmOozQ-24" value="&lt;span style=&quot;font-weight: 400;&quot;&gt;Recibo de Haberes&lt;/span&gt;" style="swimlane;fontStyle=1;align=center;verticalAlign=top;childLayout=stackLayout;horizontal=1;startSize=26;horizontalStack=0;resizeParent=1;resizeParentMax=0;resizeLast=0;collapsible=1;marginBottom=0;whiteSpace=wrap;html=1;" parent="WIyWlLk6GJQsqaUBKTNV-1" vertex="1">
          <mxGeometry x="-30" y="198" width="280" height="270" as="geometry" />
        </mxCell>
        <mxCell id="bfvoDhP0c3YyulJmOozQ-25" value="- nombreDeEmpleado: String&lt;div&gt;- direccion: String&lt;/div&gt;&lt;div&gt;- fechaDeEmision: LocalDate&lt;/div&gt;&lt;div&gt;- sueldoBruto: double&amp;nbsp;&lt;/div&gt;&lt;div&gt;- sueldoNeto: double&amp;nbsp;&lt;/div&gt;&lt;div&gt;&lt;br&gt;&lt;/div&gt;" style="text;strokeColor=none;fillColor=none;align=left;verticalAlign=top;spacingLeft=4;spacingRight=4;overflow=hidden;rotatable=0;points=[[0,0.5],[1,0.5]];portConstraint=eastwest;whiteSpace=wrap;html=1;" parent="bfvoDhP0c3YyulJmOozQ-24" vertex="1">
          <mxGeometry y="26" width="280" height="84" as="geometry" />
        </mxCell>
        <mxCell id="bfvoDhP0c3YyulJmOozQ-26" value="" style="line;strokeWidth=1;fillColor=none;align=left;verticalAlign=middle;spacingTop=-1;spacingLeft=3;spacingRight=3;rotatable=0;labelPosition=right;points=[];portConstraint=eastwest;strokeColor=inherit;" parent="bfvoDhP0c3YyulJmOozQ-24" vertex="1">
          <mxGeometry y="110" width="280" height="8" as="geometry" />
        </mxCell>
        <mxCell id="bfvoDhP0c3YyulJmOozQ-27" value="+getConceptos(): List&amp;lt;ConceptoDeSueldo&amp;gt;&lt;div&gt;&lt;div&gt;+getSueldoNeto(): double&lt;/div&gt;&lt;div&gt;+setSueldoNeto(double): void&lt;/div&gt;&lt;div&gt;&lt;div&gt;+getSueldoBruto(): double&lt;/div&gt;&lt;div&gt;+setSueldoBruto(double): void&lt;/div&gt;&lt;/div&gt;&lt;div&gt;+getNombreDeEmpleado():String&lt;/div&gt;&lt;div&gt;+setNombreDeEmpleado(String): void&amp;nbsp;&lt;/div&gt;&lt;div&gt;&lt;div&gt;+getFechaDeEmision():date&lt;/div&gt;&lt;div&gt;&lt;span style=&quot;background-color: transparent; color: light-dark(rgb(0, 0, 0), rgb(255, 255, 255));&quot;&gt;+setFechaDeEmision(date): void&lt;/span&gt;&lt;/div&gt;&lt;/div&gt;&lt;div&gt;&lt;br&gt;&lt;/div&gt;&lt;div&gt;&lt;/div&gt;&lt;/div&gt;" style="text;strokeColor=none;fillColor=none;align=left;verticalAlign=top;spacingLeft=4;spacingRight=4;overflow=hidden;rotatable=0;points=[[0,0.5],[1,0.5]];portConstraint=eastwest;whiteSpace=wrap;html=1;" parent="bfvoDhP0c3YyulJmOozQ-24" vertex="1">
          <mxGeometry y="118" width="280" height="152" as="geometry" />
        </mxCell>
        <mxCell id="bfvoDhP0c3YyulJmOozQ-29" style="edgeStyle=orthogonalEdgeStyle;rounded=0;orthogonalLoop=1;jettySize=auto;html=1;exitX=1;exitY=0.5;exitDx=0;exitDy=0;" parent="WIyWlLk6GJQsqaUBKTNV-1" edge="1">
          <mxGeometry relative="1" as="geometry">
            <mxPoint x="250" y="272.98" as="sourcePoint" />
            <mxPoint x="480" y="253" as="targetPoint" />
            <Array as="points">
              <mxPoint x="250" y="249" />
              <mxPoint x="320" y="249" />
              <mxPoint x="320" y="230" />
              <mxPoint x="410" y="230" />
              <mxPoint x="410" y="253" />
              <mxPoint x="480" y="253" />
            </Array>
          </mxGeometry>
        </mxCell>
        <mxCell id="bfvoDhP0c3YyulJmOozQ-30" value="conceptos" style="text;html=1;align=center;verticalAlign=middle;resizable=0;points=[];autosize=1;strokeColor=none;fillColor=none;" parent="WIyWlLk6GJQsqaUBKTNV-1" vertex="1">
          <mxGeometry x="325" y="198" width="80" height="30" as="geometry" />
        </mxCell>
        <mxCell id="bfvoDhP0c3YyulJmOozQ-31" value="1" style="text;html=1;align=center;verticalAlign=middle;resizable=0;points=[];autosize=1;strokeColor=none;fillColor=none;" parent="WIyWlLk6GJQsqaUBKTNV-1" vertex="1">
          <mxGeometry x="255" y="218" width="30" height="30" as="geometry" />
        </mxCell>
        <mxCell id="bfvoDhP0c3YyulJmOozQ-32" value="*" style="text;html=1;align=center;verticalAlign=middle;resizable=0;points=[];autosize=1;strokeColor=none;fillColor=none;" parent="WIyWlLk6GJQsqaUBKTNV-1" vertex="1">
          <mxGeometry x="435" y="228" width="30" height="30" as="geometry" />
        </mxCell>
        <mxCell id="bfvoDhP0c3YyulJmOozQ-42" value="&lt;span style=&quot;font-weight: 400;&quot;&gt;Concepto De Sueldo&lt;/span&gt;" style="swimlane;fontStyle=1;align=center;verticalAlign=top;childLayout=stackLayout;horizontal=1;startSize=26;horizontalStack=0;resizeParent=1;resizeParentMax=0;resizeLast=0;collapsible=1;marginBottom=0;whiteSpace=wrap;html=1;" parent="WIyWlLk6GJQsqaUBKTNV-1" vertex="1">
          <mxGeometry x="485" y="170" width="160" height="150" as="geometry" />
        </mxCell>
        <mxCell id="bfvoDhP0c3YyulJmOozQ-43" value="-descripcion: String&lt;div&gt;-monto: double&lt;/div&gt;" style="text;strokeColor=none;fillColor=none;align=left;verticalAlign=top;spacingLeft=4;spacingRight=4;overflow=hidden;rotatable=0;points=[[0,0.5],[1,0.5]];portConstraint=eastwest;whiteSpace=wrap;html=1;" parent="bfvoDhP0c3YyulJmOozQ-42" vertex="1">
          <mxGeometry y="26" width="160" height="44" as="geometry" />
        </mxCell>
        <mxCell id="bfvoDhP0c3YyulJmOozQ-44" value="" style="line;strokeWidth=1;fillColor=none;align=left;verticalAlign=middle;spacingTop=-1;spacingLeft=3;spacingRight=3;rotatable=0;labelPosition=right;points=[];portConstraint=eastwest;strokeColor=inherit;" parent="bfvoDhP0c3YyulJmOozQ-42" vertex="1">
          <mxGeometry y="70" width="160" height="8" as="geometry" />
        </mxCell>
        <mxCell id="bfvoDhP0c3YyulJmOozQ-45" value="+getMonto(): double&lt;div&gt;+setMonto(double):void&lt;/div&gt;&lt;div&gt;+getDescripcion(): String&lt;/div&gt;&lt;div&gt;+setDescripcion(String):void&lt;/div&gt;" style="text;strokeColor=none;fillColor=none;align=left;verticalAlign=top;spacingLeft=4;spacingRight=4;overflow=hidden;rotatable=0;points=[[0,0.5],[1,0.5]];portConstraint=eastwest;whiteSpace=wrap;html=1;" parent="bfvoDhP0c3YyulJmOozQ-42" vertex="1">
          <mxGeometry y="78" width="160" height="72" as="geometry" />
        </mxCell>
      </root>
    </mxGraphModel>
  </diagram>
</mxfile>
